<svg xmlns="http://www.w3.org/2000/svg" viewBox="0 0 64 64">
  <g fill="none" stroke="#ffffff" stroke-linecap="round">
    <circle cx="32" cy="32" r="5.5" stroke-width="2"/>
    <g stroke-width="3">
      <path d="M32 6v52"/>
      <path d="M9.48 19 54.52 45"/>
      <path d="M54.52 19 9.48 45"/>
    </g>
    <g stroke-width="2.2">
      <path d="M32 14 24 6M32 14l8-8"/>
      <path d="M32 50 24 58M32 50l8 8"/>
      <path d="M18 24 7 20M18 24l2-12"/>
      <path d="M46 40 57 44M46 40l-2 12"/>
      <path d="M46 24 57 20M46 24l-2-12"/>
      <path d="M18 40 7 44M18 40l2 12"/>
      <path d="M32 24 23 19M32 24l9-5"/>
      <path d="M32 40 23 45M32 40l9 5"/>
    </g>
  </g>
</svg>
